<mxfile host="app.diagrams.net" modified="2024-05-20T09:20:47.092Z" agent="Mozilla/5.0 (Windows NT 10.0; Win64; x64) AppleWebKit/537.36 (KHTML, like Gecko) Chrome/123.0.0.0 Safari/537.36 OPR/109.0.0.0" etag="YOCKzJAi9Zdt2lueP8J7" version="24.4.4" type="google">
  <diagram name="Pagina-1" id="RCUfejtaZTne3jpVjQuu">
    <mxGraphModel grid="1" page="1" gridSize="10" guides="1" tooltips="1" connect="1" arrows="1" fold="1" pageScale="1" pageWidth="827" pageHeight="1169" math="0" shadow="0">
      <root>
        <mxCell id="0" />
        <mxCell id="1" parent="0" />
        <mxCell id="gzhCzuQecLE_rd2Ft1pJ-1" value=":Object" style="shape=umlLifeline;perimeter=lifelinePerimeter;whiteSpace=wrap;html=1;container=1;dropTarget=0;collapsible=0;recursiveResize=0;outlineConnect=0;portConstraint=eastwest;newEdgeStyle={&quot;curved&quot;:0,&quot;rounded&quot;:0};" vertex="1" parent="1">
          <mxGeometry x="110" y="240" width="100" height="640" as="geometry" />
        </mxCell>
        <mxCell id="gzhCzuQecLE_rd2Ft1pJ-2" value="UI" style="shape=folder;fontStyle=1;spacingTop=10;tabWidth=40;tabHeight=14;tabPosition=left;html=1;whiteSpace=wrap;" vertex="1" parent="1">
          <mxGeometry x="110" y="220" width="100" height="60" as="geometry" />
        </mxCell>
        <mxCell id="gzhCzuQecLE_rd2Ft1pJ-3" value="&lt;font style=&quot;font-size: 24px;&quot;&gt;7 - updateShift&lt;/font&gt;" style="text;html=1;align=center;verticalAlign=middle;resizable=0;points=[];autosize=1;strokeColor=none;fillColor=none;" vertex="1" parent="1">
          <mxGeometry x="480" y="80" width="180" height="40" as="geometry" />
        </mxCell>
        <mxCell id="gzhCzuQecLE_rd2Ft1pJ-4" value="dutyMgr:&lt;div&gt;DutyManager&lt;/div&gt;" style="shape=umlLifeline;perimeter=lifelinePerimeter;whiteSpace=wrap;html=1;container=1;dropTarget=0;collapsible=0;recursiveResize=0;outlineConnect=0;portConstraint=eastwest;newEdgeStyle={&quot;curved&quot;:0,&quot;rounded&quot;:0};" vertex="1" parent="1">
          <mxGeometry x="414" y="240" width="106" height="640" as="geometry" />
        </mxCell>
        <mxCell id="gzhCzuQecLE_rd2Ft1pJ-5" value="" style="html=1;points=[[0,0,0,0,5],[0,1,0,0,-5],[1,0,0,0,5],[1,1,0,0,-5]];perimeter=orthogonalPerimeter;outlineConnect=0;targetShapes=umlLifeline;portConstraint=eastwest;newEdgeStyle={&quot;curved&quot;:0,&quot;rounded&quot;:0};" vertex="1" parent="gzhCzuQecLE_rd2Ft1pJ-4">
          <mxGeometry x="48" y="80" width="10" height="540" as="geometry" />
        </mxCell>
        <mxCell id="gzhCzuQecLE_rd2Ft1pJ-6" value="updateShift(shift, issue?, jobDate?, startTime?, endTime?,&amp;nbsp;&lt;div&gt;group?, GroupName?,preExt?, postExt?)&lt;/div&gt;" style="html=1;verticalAlign=bottom;endArrow=block;curved=0;rounded=0;" edge="1" parent="1" target="gzhCzuQecLE_rd2Ft1pJ-5">
          <mxGeometry width="80" relative="1" as="geometry">
            <mxPoint x="160" y="330" as="sourcePoint" />
            <mxPoint x="240" y="330" as="targetPoint" />
          </mxGeometry>
        </mxCell>
        <mxCell id="gzhCzuQecLE_rd2Ft1pJ-7" value="shiftMgr:&lt;div&gt;ShiftManager&lt;/div&gt;" style="shape=umlLifeline;perimeter=lifelinePerimeter;whiteSpace=wrap;html=1;container=1;dropTarget=0;collapsible=0;recursiveResize=0;outlineConnect=0;portConstraint=eastwest;newEdgeStyle={&quot;curved&quot;:0,&quot;rounded&quot;:0};" vertex="1" parent="1">
          <mxGeometry x="717" y="240" width="110" height="640" as="geometry" />
        </mxCell>
        <mxCell id="gzhCzuQecLE_rd2Ft1pJ-11" value="" style="html=1;points=[[0,0,0,0,5],[0,1,0,0,-5],[1,0,0,0,5],[1,1,0,0,-5]];perimeter=orthogonalPerimeter;outlineConnect=0;targetShapes=umlLifeline;portConstraint=eastwest;newEdgeStyle={&quot;curved&quot;:0,&quot;rounded&quot;:0};" vertex="1" parent="gzhCzuQecLE_rd2Ft1pJ-7">
          <mxGeometry x="50" y="250" width="10" height="250" as="geometry" />
        </mxCell>
        <mxCell id="gzhCzuQecLE_rd2Ft1pJ-12" value="updateShift(shift, issue?, jobDate?, startTime?, endTime?,&amp;nbsp;&lt;div&gt;group?, groupName?,preExt?, postExt?)&lt;/div&gt;" style="html=1;verticalAlign=bottom;endArrow=block;curved=0;rounded=0;" edge="1" parent="1">
          <mxGeometry width="80" relative="1" as="geometry">
            <mxPoint x="472" y="490" as="sourcePoint" />
            <mxPoint x="767.0000000000002" y="490" as="targetPoint" />
          </mxGeometry>
        </mxCell>
        <mxCell id="gzhCzuQecLE_rd2Ft1pJ-13" value="&lt;span style=&quot;font-size: 8px;&quot;&gt;alt&amp;nbsp;&lt;/span&gt;&lt;div&gt;&lt;span style=&quot;font-size: 8px;&quot;&gt;[shift.jobDate == LocalDate.now()&amp;nbsp;&lt;/span&gt;&lt;/div&gt;&lt;div&gt;&lt;span style=&quot;font-size: 8px;&quot;&gt;&amp;amp;&amp;amp; shift.startTime &amp;lt;= LocalTime.now()]&lt;/span&gt;&lt;/div&gt;" style="shape=umlFrame;whiteSpace=wrap;html=1;pointerEvents=0;width=170;height=40;" vertex="1" parent="1">
          <mxGeometry x="-10" y="340" width="1440" height="540" as="geometry" />
        </mxCell>
        <mxCell id="gzhCzuQecLE_rd2Ft1pJ-14" value="" style="endArrow=none;dashed=1;html=1;dashPattern=1 3;strokeWidth=2;rounded=0;" edge="1" parent="1">
          <mxGeometry width="50" height="50" relative="1" as="geometry">
            <mxPoint x="-10" y="390" as="sourcePoint" />
            <mxPoint x="1270" y="390" as="targetPoint" />
          </mxGeometry>
        </mxCell>
        <mxCell id="gzhCzuQecLE_rd2Ft1pJ-15" value="throw UseCaseLogicException" style="html=1;verticalAlign=bottom;endArrow=open;dashed=1;endSize=8;curved=0;rounded=0;" edge="1" parent="1">
          <mxGeometry relative="1" as="geometry">
            <mxPoint x="160.0999999999999" y="370" as="targetPoint" />
            <mxPoint x="462" y="370" as="sourcePoint" />
          </mxGeometry>
        </mxCell>
        <mxCell id="gzhCzuQecLE_rd2Ft1pJ-16" value="" style="endArrow=none;dashed=1;html=1;dashPattern=1 3;strokeWidth=2;rounded=0;" edge="1" parent="1">
          <mxGeometry width="50" height="50" relative="1" as="geometry">
            <mxPoint x="-10" y="430" as="sourcePoint" />
            <mxPoint x="1270" y="430" as="targetPoint" />
          </mxGeometry>
        </mxCell>
        <mxCell id="gzhCzuQecLE_rd2Ft1pJ-17" value="&lt;font style=&quot;font-size: 8px;&quot;&gt;[issue == null]&lt;/font&gt;" style="text;html=1;align=center;verticalAlign=middle;resizable=0;points=[];autosize=1;strokeColor=none;fillColor=none;" vertex="1" parent="1">
          <mxGeometry x="25" y="398" width="70" height="30" as="geometry" />
        </mxCell>
        <mxCell id="gzhCzuQecLE_rd2Ft1pJ-18" value="shift:&lt;div&gt;Shift&lt;/div&gt;" style="shape=umlLifeline;perimeter=lifelinePerimeter;whiteSpace=wrap;html=1;container=1;dropTarget=0;collapsible=0;recursiveResize=0;outlineConnect=0;portConstraint=eastwest;newEdgeStyle={&quot;curved&quot;:0,&quot;rounded&quot;:0};" vertex="1" parent="1">
          <mxGeometry x="940" y="240" width="110" height="640" as="geometry" />
        </mxCell>
        <mxCell id="gzhCzuQecLE_rd2Ft1pJ-19" value="" style="html=1;points=[[0,0,0,0,5],[0,1,0,0,-5],[1,0,0,0,5],[1,1,0,0,-5]];perimeter=orthogonalPerimeter;outlineConnect=0;targetShapes=umlLifeline;portConstraint=eastwest;newEdgeStyle={&quot;curved&quot;:0,&quot;rounded&quot;:0};" vertex="1" parent="gzhCzuQecLE_rd2Ft1pJ-18">
          <mxGeometry x="50" y="260" width="10" height="210" as="geometry" />
        </mxCell>
        <mxCell id="gzhCzuQecLE_rd2Ft1pJ-20" value="&lt;font style=&quot;font-size: 10px;&quot;&gt;update(shift, jobDate?, startTime?, endTime?,&amp;nbsp;&lt;br&gt;&lt;/font&gt;&lt;font style=&quot;font-size: 10px;&quot;&gt;group?, groupName?,preExt?, postExt?)&lt;/font&gt;" style="html=1;verticalAlign=bottom;endArrow=block;curved=0;rounded=0;entryX=0;entryY=0;entryDx=0;entryDy=5;" edge="1" parent="1" source="gzhCzuQecLE_rd2Ft1pJ-11" target="gzhCzuQecLE_rd2Ft1pJ-19">
          <mxGeometry relative="1" as="geometry">
            <mxPoint x="890" y="505" as="sourcePoint" />
          </mxGeometry>
        </mxCell>
        <mxCell id="gzhCzuQecLE_rd2Ft1pJ-21" value="shift" style="html=1;verticalAlign=bottom;endArrow=open;dashed=1;endSize=8;curved=0;rounded=0;exitX=0;exitY=1;exitDx=0;exitDy=-5;" edge="1" parent="1" source="gzhCzuQecLE_rd2Ft1pJ-19" target="gzhCzuQecLE_rd2Ft1pJ-11">
          <mxGeometry relative="1" as="geometry">
            <mxPoint x="780" y="705" as="targetPoint" />
          </mxGeometry>
        </mxCell>
        <mxCell id="gzhCzuQecLE_rd2Ft1pJ-23" value="this.jobDate= jobDate" style="html=1;align=left;spacingLeft=2;endArrow=block;rounded=0;edgeStyle=orthogonalEdgeStyle;curved=0;rounded=0;" edge="1" parent="1">
          <mxGeometry relative="1" as="geometry">
            <mxPoint x="1000" y="500" as="sourcePoint" />
            <Array as="points">
              <mxPoint x="1000" y="500" />
              <mxPoint x="1030" y="500" />
              <mxPoint x="1030" y="518" />
            </Array>
            <mxPoint x="1000" y="517.56" as="targetPoint" />
          </mxGeometry>
        </mxCell>
        <mxCell id="gzhCzuQecLE_rd2Ft1pJ-24" value="this.startTime = startTime" style="html=1;align=left;spacingLeft=2;endArrow=block;rounded=0;edgeStyle=orthogonalEdgeStyle;curved=0;rounded=0;" edge="1" parent="1">
          <mxGeometry relative="1" as="geometry">
            <mxPoint x="1000" y="530" as="sourcePoint" />
            <Array as="points">
              <mxPoint x="1000" y="530" />
              <mxPoint x="1030" y="530" />
              <mxPoint x="1030" y="544" />
            </Array>
            <mxPoint x="1000" y="543.75" as="targetPoint" />
          </mxGeometry>
        </mxCell>
        <mxCell id="gzhCzuQecLE_rd2Ft1pJ-25" value="this.endTime = endTime" style="html=1;align=left;spacingLeft=2;endArrow=block;rounded=0;edgeStyle=orthogonalEdgeStyle;curved=0;rounded=0;" edge="1" parent="1">
          <mxGeometry relative="1" as="geometry">
            <mxPoint x="1000" y="553.69" as="sourcePoint" />
            <Array as="points">
              <mxPoint x="1000" y="553.69" />
              <mxPoint x="1030" y="553.69" />
              <mxPoint x="1030" y="566.69" />
            </Array>
            <mxPoint x="1000" y="566.25" as="targetPoint" />
          </mxGeometry>
        </mxCell>
        <mxCell id="gzhCzuQecLE_rd2Ft1pJ-26" value="this.group = group" style="html=1;align=left;spacingLeft=2;endArrow=block;rounded=0;edgeStyle=orthogonalEdgeStyle;curved=0;rounded=0;" edge="1" parent="1">
          <mxGeometry relative="1" as="geometry">
            <mxPoint x="1000" y="576" as="sourcePoint" />
            <Array as="points">
              <mxPoint x="1000" y="576" />
              <mxPoint x="1030" y="576" />
              <mxPoint x="1030" y="594" />
            </Array>
            <mxPoint x="1000" y="593.56" as="targetPoint" />
          </mxGeometry>
        </mxCell>
        <mxCell id="gzhCzuQecLE_rd2Ft1pJ-27" value="this.groupName = groupName" style="html=1;align=left;spacingLeft=2;endArrow=block;rounded=0;edgeStyle=orthogonalEdgeStyle;curved=0;rounded=0;" edge="1" parent="1">
          <mxGeometry relative="1" as="geometry">
            <mxPoint x="1000" y="610" as="sourcePoint" />
            <Array as="points">
              <mxPoint x="1000" y="610" />
              <mxPoint x="1030" y="610" />
              <mxPoint x="1030" y="628" />
            </Array>
            <mxPoint x="1000" y="627.56" as="targetPoint" />
          </mxGeometry>
        </mxCell>
        <mxCell id="gzhCzuQecLE_rd2Ft1pJ-28" value="shift" style="html=1;verticalAlign=bottom;endArrow=open;dashed=1;endSize=8;curved=0;rounded=0;" edge="1" parent="1">
          <mxGeometry relative="1" as="geometry">
            <mxPoint x="472" y="730" as="targetPoint" />
            <mxPoint x="767" y="730" as="sourcePoint" />
          </mxGeometry>
        </mxCell>
        <mxCell id="gzhCzuQecLE_rd2Ft1pJ-29" value="" style="html=1;points=[[0,0,0,0,5],[0,1,0,0,-5],[1,0,0,0,5],[1,1,0,0,-5]];perimeter=orthogonalPerimeter;outlineConnect=0;targetShapes=umlLifeline;portConstraint=eastwest;newEdgeStyle={&quot;curved&quot;:0,&quot;rounded&quot;:0};" vertex="1" parent="1">
          <mxGeometry x="467" y="770" width="10" height="40" as="geometry" />
        </mxCell>
        <mxCell id="gzhCzuQecLE_rd2Ft1pJ-30" value="notifyShiftUpdated(shift, issue)" style="html=1;align=left;spacingLeft=2;endArrow=block;rounded=0;edgeStyle=orthogonalEdgeStyle;curved=0;rounded=0;" edge="1" parent="1" target="gzhCzuQecLE_rd2Ft1pJ-29">
          <mxGeometry relative="1" as="geometry">
            <mxPoint x="472" y="750" as="sourcePoint" />
            <Array as="points">
              <mxPoint x="502" y="780" />
            </Array>
          </mxGeometry>
        </mxCell>
        <mxCell id="gzhCzuQecLE_rd2Ft1pJ-31" value=":Object" style="shape=umlLifeline;perimeter=lifelinePerimeter;whiteSpace=wrap;html=1;container=1;dropTarget=0;collapsible=0;recursiveResize=0;outlineConnect=0;portConstraint=eastwest;newEdgeStyle={&quot;curved&quot;:0,&quot;rounded&quot;:0};" vertex="1" parent="1">
          <mxGeometry x="1230" y="240" width="100" height="640" as="geometry" />
        </mxCell>
        <mxCell id="gzhCzuQecLE_rd2Ft1pJ-33" value="" style="html=1;points=[[0,0,0,0,5],[0,1,0,0,-5],[1,0,0,0,5],[1,1,0,0,-5]];perimeter=orthogonalPerimeter;outlineConnect=0;targetShapes=umlLifeline;portConstraint=eastwest;newEdgeStyle={&quot;curved&quot;:0,&quot;rounded&quot;:0};" vertex="1" parent="gzhCzuQecLE_rd2Ft1pJ-31">
          <mxGeometry x="45" y="550" width="10" height="40" as="geometry" />
        </mxCell>
        <mxCell id="gzhCzuQecLE_rd2Ft1pJ-32" value="updateShiftUpdated(shift,issue)" style="html=1;verticalAlign=bottom;endArrow=block;curved=0;rounded=0;" edge="1" parent="1" target="gzhCzuQecLE_rd2Ft1pJ-33">
          <mxGeometry width="80" relative="1" as="geometry">
            <mxPoint x="477" y="800" as="sourcePoint" />
            <mxPoint x="557" y="800" as="targetPoint" />
          </mxGeometry>
        </mxCell>
        <mxCell id="gzhCzuQecLE_rd2Ft1pJ-34" value="shift" style="html=1;verticalAlign=bottom;endArrow=open;dashed=1;endSize=8;curved=0;rounded=0;" edge="1" parent="1">
          <mxGeometry relative="1" as="geometry">
            <mxPoint x="160" y="860" as="targetPoint" />
            <mxPoint x="462" y="860" as="sourcePoint" />
          </mxGeometry>
        </mxCell>
        <mxCell id="gzhCzuQecLE_rd2Ft1pJ-35" value="for each er in receivers" style="shape=umlFrame;whiteSpace=wrap;html=1;pointerEvents=0;width=100;height=30;" vertex="1" parent="1">
          <mxGeometry x="310" y="740" width="1000" height="100" as="geometry" />
        </mxCell>
        <mxCell id="Sc6ChFMtkYx6PU_s2FVI-1" value="this.startTime = preExt" style="html=1;align=left;spacingLeft=2;endArrow=block;rounded=0;edgeStyle=orthogonalEdgeStyle;curved=0;rounded=0;" edge="1" parent="1">
          <mxGeometry relative="1" as="geometry">
            <mxPoint x="1000" y="640" as="sourcePoint" />
            <Array as="points">
              <mxPoint x="1000" y="640" />
              <mxPoint x="1030" y="640" />
              <mxPoint x="1030" y="658" />
            </Array>
            <mxPoint x="1000" y="657.56" as="targetPoint" />
          </mxGeometry>
        </mxCell>
        <mxCell id="Sc6ChFMtkYx6PU_s2FVI-2" value="this.endTime = postExt" style="html=1;align=left;spacingLeft=2;endArrow=block;rounded=0;edgeStyle=orthogonalEdgeStyle;curved=0;rounded=0;" edge="1" parent="1">
          <mxGeometry relative="1" as="geometry">
            <mxPoint x="1000" y="680" as="sourcePoint" />
            <Array as="points">
              <mxPoint x="1000" y="680" />
              <mxPoint x="1030" y="680" />
              <mxPoint x="1030" y="693" />
            </Array>
            <mxPoint x="1000" y="692.56" as="targetPoint" />
          </mxGeometry>
        </mxCell>
      </root>
    </mxGraphModel>
  </diagram>
</mxfile>
